<svg xmlns="http://www.w3.org/2000/svg" version="1.1" xmlns:xlink="http://www.w3.org/1999/xlink" xmlns:svgjs="http://svgjs.com/svgjs" width="512" height="512" x="0" y="0" viewBox="0 0 16.933 16.933" style="enable-background:new 0 0 512 512" xml:space="preserve"><g><path fill="#38668c" d="M4.762 4.755V6.35h7.409V4.755c-.754.165-1.972.272-3.358.272H8.12c-1.385 0-2.604-.107-3.358-.272z" data-original="#38668c"></path><path fill="#e4eff8" d="M1.18 10.707a1.32 1.32 0 0 0 0 1.871 1.32 1.32 0 0 0 1.871 0l2.432-2.432a.528.528 0 0 0 0-.748L4.361 8.275a.528.528 0 0 0-.749 0z" data-original="#e4eff8"></path><path fill="#c4dcf0" d="M3.986 8.12a.527.527 0 0 0-.306.1.53.53 0 0 1 .07.055l1.122 1.122a.529.529 0 0 1 0 .75L2.44 12.577c-.18.18-.4.293-.63.348.431.103.903-.01 1.241-.348l2.432-2.432a.529.529 0 0 0 0-.749L4.361 8.275a.529.529 0 0 0-.375-.156z" data-original="#c4dcf0"></path><path fill="#e4eff8" d="m5.063 8.977.42.42a.529.529 0 0 1 0 .75l-2.432 2.431a1.335 1.335 0 0 1-.14.12v2.648c0 .44.353.794.793.794h9.525c.44 0 .794-.354.794-.794v-2.648a1.335 1.335 0 0 1-.14-.12l-2.433-2.432a.529.529 0 0 1 0-.749l.42-.42z" data-original="#e4eff8"></path><path fill="#c4dcf0" d="M10.319 8.977v.283c0 .936-.688 1.704-1.588 1.832a1.848 1.848 0 0 0 2.117-1.831v-.284zM5.063 8.977l.42.42a.529.529 0 0 1 0 .75l-2.432 2.431a1.335 1.335 0 0 1-.14.12v.478c.214-.058.418-.166.587-.335l2.432-2.433a.528.528 0 0 0 0-.748l-.683-.683z" data-original="#c4dcf0"></path><path fill="#38668c" d="M7.408 10.848v2.91l1.059 1.059 1.058-1.059v-2.91z" data-original="#38668c"></path><path fill="#2c5170" d="M8.996 10.848v2.74l-.879.88.35.349 1.058-1.059v-2.91z" data-original="#2c5170"></path><path fill="#c4dcf0" d="M13.494 12.19v2.627c0 .44-.354.793-.794.793H3.175a.789.789 0 0 1-.228-.036.79.79 0 0 0 .757.566h9.525c.44 0 .794-.354.794-.794v-2.648a1.335 1.335 0 0 1-.14-.12z" data-original="#c4dcf0"></path><path fill="#e4eff8" d="M15.753 10.707a1.32 1.32 0 0 1 0 1.871 1.32 1.32 0 0 1-1.87 0l-2.433-2.432a.528.528 0 0 1 0-.748l1.123-1.123a.528.528 0 0 1 .748 0z" data-original="#e4eff8"></path><path fill="#c4dcf0" d="M12.947 8.12a.528.528 0 0 0-.356.14.526.526 0 0 1 .2.124l2.432 2.432a1.32 1.32 0 0 1-.414 2.15c.341.002.683-.127.944-.388a1.32 1.32 0 0 0 0-1.87l-2.432-2.433a.527.527 0 0 0-.374-.156z" data-original="#c4dcf0"></path><path fill="#ffc6a0" d="M10.319 8.467v.793a1.848 1.848 0 0 1-1.852 1.853A1.848 1.848 0 0 1 6.615 9.26v-.793z" data-original="#ffc6a0"></path><path fill="#ffaf7a" d="M6.615 8.467v.568c.476.467 1.129.755 1.852.755.723 0 1.375-.288 1.852-.755v-.568z" data-original="#ffaf7a"></path><path fill="#ffaf7a" d="M9.79 8.467v.793c0 .936-.689 1.704-1.588 1.832A1.848 1.848 0 0 0 10.32 9.26v-.794z" data-original="#ffaf7a"></path><path fill="#ffc6a0" d="M5.82 6.615c0 .714.282 1.359.74 1.834.027.024.052.099.052.151a.923.923 0 0 1-.898.923.539.539 0 0 0-.127-.205L4.44 8.171a.537.537 0 0 0-.224-.132c.393-.439.544-.913.544-1.159v-.529a.53.53 0 1 1 1.06.003z" data-original="#ffc6a0"></path><path fill="#ffaf7a" d="M5.292 5.822v.793c0 .962.51 1.799 1.274 2.261a.917.917 0 0 0 .047-.276c0-.052-.026-.127-.054-.15a2.635 2.635 0 0 1-.738-1.835l-.001-.261a.53.53 0 0 0-.528-.532z" data-original="#ffaf7a"></path><path fill="#ffc6a0" d="M11.113 6.615c0 .714-.282 1.359-.739 1.834-.028.024-.053.099-.053.151 0 .503.398.908.898.923a.539.539 0 0 1 .127-.205l1.147-1.147a.537.537 0 0 1 .225-.132c-.394-.439-.545-.913-.545-1.159v-.529a.53.53 0 1 0-1.06.003z" data-original="#ffc6a0"></path><path fill="#2c5170" d="M12.17 4.755a8.464 8.464 0 0 1-.528.091V6.35h.529z" data-original="#2c5170"></path><path fill="#ffaf7a" d="M11.644 5.822a.525.525 0 0 0-.265.073c.158.091.265.26.265.456v.53c0 .205.106.572.373.944.104.127.026.267-.053.346l-1.147 1.147c-.02.02-.036.045-.053.067a.923.923 0 0 0 .455.138.539.539 0 0 1 .127-.205l1.147-1.147a.537.537 0 0 1 .225-.132c-.394-.439-.545-.913-.545-1.159v-.529a.528.528 0 0 0-.53-.53z" data-original="#ffaf7a"></path><path fill="#ffc6a0" d="M11.113 4.887v1.728A2.64 2.64 0 0 1 8.466 9.26 2.64 2.64 0 0 1 5.82 6.615V4.887z" data-original="#ffc6a0"></path><path fill="#ffaf7a" d="M10.583 4.887v1.728a2.64 2.64 0 0 1-2.38 2.632 2.64 2.64 0 0 0 2.91-2.633V4.888z" data-original="#ffaf7a"></path><path fill="#e4eff8" d="M8.334.794a3.564 3.564 0 0 0-3.572 3.572v.389c.754.165 1.973.272 3.358.272h.693c1.386 0 2.604-.107 3.358-.272v-.39A3.564 3.564 0 0 0 8.599.795z" data-original="#e4eff8"></path><path fill="#c4dcf0" d="M12.17 4.762v-.396A3.564 3.564 0 0 0 8.6.794h-.265c-.044 0-.088.005-.132.006a3.56 3.56 0 0 1 3.44 3.566v.397z" data-original="#c4dcf0"></path><path fill="#e4eff8" d="M8.202 7.144h.53a.528.528 0 1 1 0 1.058h-.53a.528.528 0 1 1 0-1.058z" data-original="#e4eff8"></path><path fill="#c4dcf0" d="M8.202 7.144a.528.528 0 1 0 0 1.058c0-.293.236-.53.53-.53h.528a.528.528 0 0 0-.529-.528z" data-original="#c4dcf0"></path><path fill="#333333" d="M8.334.53A3.826 3.826 0 0 0 4.5 4.364v2.516c0 .173-.12.579-.47.975a.793.793 0 0 0-.603.232L.994 10.52a1.589 1.589 0 0 0 1.652 2.62v2.206c0 .592.478 1.058 1.06 1.058h9.523c.582 0 1.058-.466 1.059-1.058V13.14a1.584 1.584 0 0 0 1.652-.374 1.59 1.59 0 0 0 0-2.246l-2.432-2.432a.793.793 0 0 0-.602-.232c-.35-.396-.47-.802-.47-.975V4.365A3.826 3.826 0 0 0 8.6.53zm0 .529H8.6a3.298 3.298 0 0 1 3.307 3.306v.174c-.732.133-1.849.222-3.094.222h-.691c-1.246 0-2.362-.089-3.094-.222v-.174A3.298 3.298 0 0 1 8.334 1.06zM5.03 5.077c.16.027.343.054.528.077v.45a.776.776 0 0 0-.53-.002zm6.878.525a.77.77 0 0 0-.53.002v-.45c.185-.023.369-.05.529-.077zm-5.82-.394c.604.053 1.294.083 2.035.083h.691c.74 0 1.43-.03 2.036-.083v1.407a2.376 2.376 0 0 1-2.382 2.381 2.376 2.376 0 0 1-2.38-2.38zm-.531 1.144v.263c.004.794.303 1.477.792 1.997a.657.657 0 0 1-.632.648 1.194 1.194 0 0 0-.053-.058c-.378-.378-.748-.753-1.127-1.127.348-.446.492-.91.492-1.194v-.53c0-.15.117-.265.261-.265.141 0 .266.114.267.266zm6.35 0v.529c0 .284.145.748.493 1.194-.38.374-.75.749-1.127 1.128-.015.015-.04.04-.053.057a.657.657 0 0 1-.632-.648c.489-.52.788-1.203.79-1.997l.002-.263a.268.268 0 0 1 .266-.266c.144 0 .262.114.262.266zm-3.702.527a.793.793 0 1 0 0 1.588h.527a.794.794 0 1 0 0-1.588zm0 .53h.527c.151 0 .266.126.266.265a.267.267 0 0 1-.266.263h-.527a.267.267 0 0 1-.266-.263c0-.139.115-.266.266-.266zm-4.217.975c.067 0 .134.026.187.08l1.12 1.118a.264.264 0 0 1 0 .38L2.865 12.39a1.055 1.055 0 0 1-1.498 0 1.056 1.056 0 0 1 0-1.496L3.8 8.464a.264.264 0 0 1 .188-.08zm8.96 0c.068 0 .135.026.188.08l2.432 2.43c.41.41.418 1.079 0 1.496a1.055 1.055 0 0 1-1.498 0L11.64 9.961a.264.264 0 0 1 0-.38l1.12-1.118a.262.262 0 0 1 .188-.079zm-6.067.672a2.89 2.89 0 0 0 1.587.47 2.89 2.89 0 0 0 1.588-.47v.204c0 .884-.708 1.587-1.588 1.587S6.88 10.144 6.88 9.26zm.264 1.86v2.842c0 .07.028.137.077.187l1.059 1.059a.264.264 0 0 0 .375 0l1.059-1.059a.265.265 0 0 0 .076-.187v-2.842c.408-.328.692-.802.771-1.343.14.1.294.165.469.197 0 .205.08.41.235.564l2.431 2.432.063.059v2.52c0 .299-.24.53-.53.53H3.706a.528.528 0 0 1-.53-.53v-2.52l.062-.06 2.432-2.431a.793.793 0 0 0 .235-.564c.174-.032.33-.097.468-.197.08.54.364 1.015.771 1.343zm.53.309c.245.099.513.152.793.152s.549-.053.794-.152v2.423l-.794.796-.793-.796zm.793.681a.265.265 0 1 0 0 .53.265.265 0 0 0 0-.53zm0 1.059a.265.265 0 1 0 0 .529.265.265 0 0 0 0-.53z" data-original="#333333"></path></g></svg>