<svg width="375" height="375" viewBox="0 0 375 375" fill="none" xmlns="http://www.w3.org/2000/svg">
<path d="M372.784 183.064L349.42 148.732C346.324 143.861 342.143 139.774 337.203 136.79C332.263 133.805 326.7 132.006 320.948 131.532C324.673 127.125 327.328 121.915 328.704 116.311C330.08 110.706 330.14 104.859 328.88 99.228L321.16 58.428C320.896 57.0431 320.22 55.7701 319.221 54.7754C318.222 53.7806 316.946 53.1103 315.56 52.852L274.76 45.132C269.129 43.8692 263.281 43.9282 257.677 45.3044C252.072 46.6806 246.862 49.3366 242.456 53.064C241.984 47.3113 240.186 41.7461 237.201 36.8054C234.217 31.8647 230.128 27.6828 225.256 24.588L190.936 1.228C189.776 0.436576 188.404 0.0132446 187 0.0132446C185.596 0.0132446 184.224 0.436576 183.064 1.228L148.732 24.6C143.861 27.6956 139.774 31.8771 136.79 36.8168C133.805 41.7566 132.006 47.3203 131.532 53.072C127.126 49.3449 121.916 46.6891 116.311 45.3129C110.707 43.9367 104.859 43.8775 99.228 45.14L58.428 52.86C57.0462 53.1221 55.7752 53.7942 54.7807 54.7887C53.7862 55.7832 53.1141 57.0542 52.852 58.436L45.132 99.236C43.8717 104.867 43.932 110.713 45.3081 116.317C46.6842 121.92 49.3388 127.129 53.064 131.536C47.3116 132.009 41.7471 133.809 36.8066 136.793C31.8661 139.777 27.6839 143.865 24.588 148.736L1.22799 183.06C0.434465 184.219 0.00985718 185.591 0.00985718 186.996C0.00985718 188.401 0.434465 189.773 1.22799 190.932L24.588 225.264C27.6846 230.135 31.867 234.222 36.8073 237.206C41.7477 240.19 47.3119 241.99 53.064 242.464C49.3387 246.871 46.6842 252.081 45.3081 257.685C43.932 263.29 43.8717 269.137 45.132 274.768L52.852 315.568C53.1141 316.95 53.7862 318.221 54.7807 319.215C55.7752 320.21 57.0462 320.882 58.428 321.144L99.228 328.864C101.981 329.389 104.777 329.657 107.58 329.664C116.358 329.825 124.886 326.74 131.528 321C132.006 326.746 133.808 332.304 136.792 337.238C139.776 342.171 143.861 346.348 148.728 349.44L183.052 372.8C184.212 373.592 185.584 374.016 186.988 374.016C188.392 374.016 189.764 373.592 190.924 372.8L225.256 349.436C230.123 346.345 234.208 342.169 237.192 337.236C240.176 332.303 241.978 326.746 242.456 321C249.095 326.751 257.625 329.847 266.408 329.692C269.212 329.685 272.009 329.417 274.764 328.892L315.564 321.172C316.95 320.914 318.226 320.243 319.225 319.249C320.224 318.254 320.9 316.981 321.164 315.596L328.884 274.796C330.144 269.165 330.084 263.319 328.708 257.715C327.332 252.112 324.677 246.903 320.952 242.496C326.704 242.023 332.269 240.223 337.209 237.239C342.15 234.255 346.332 230.167 349.428 225.296L372.788 190.972C373.589 189.809 374.017 188.43 374.017 187.017C374.016 185.605 373.586 184.226 372.784 183.064ZM272.2 58.88L308.308 65.712L315.12 101.8C316.039 105.513 316.031 109.395 315.098 113.104C314.165 116.813 312.334 120.236 309.768 123.072L301.456 131.4H242.6V72.544L250.908 64.232C253.745 61.6605 257.171 59.8271 260.885 58.8937C264.598 57.9602 268.484 57.9556 272.2 58.88ZM177.1 255.724L145.4 287.448V242.6H163.98L177.1 255.724ZM196.9 118.276L228.6 86.552V131.4H210.02L196.9 118.276ZM245.82 187L230.652 202.172C229.339 203.484 228.601 205.264 228.6 207.12V228.6H207.12C205.264 228.601 203.484 229.339 202.172 230.652L187 245.82L171.828 230.652C170.516 229.339 168.736 228.601 166.88 228.6H145.4V207.12C145.399 205.264 144.661 203.484 143.348 202.172L128.2 187L143.368 171.828C144.674 170.513 145.404 168.733 145.4 166.88V145.4H166.88C168.736 145.399 170.516 144.661 171.828 143.348L187 128.2L202.172 143.368C203.484 144.681 205.264 145.419 207.12 145.42H228.6V166.9C228.601 168.756 229.339 170.536 230.652 171.848L245.82 187ZM163.98 131.4H145.4V86.552L177.1 118.276L163.98 131.4ZM131.4 163.98L118.276 177.1L86.552 145.4H131.4V163.98ZM118.276 196.9L131.4 210.02V228.6H86.552L118.276 196.9ZM210.02 242.6H228.6V287.448L196.9 255.724L210.02 242.6ZM242.6 210.02L255.724 196.9L287.448 228.6H242.6V210.02ZM255.724 177.1L242.6 163.98V145.4H287.448L255.724 177.1ZM156.6 36.144L187 15.468L217.372 36.14C220.639 38.1161 223.37 40.8635 225.328 44.1413C227.286 47.419 228.409 51.127 228.6 54.94V66.728L187 108.376L145.4 66.748V54.96C145.586 51.1469 146.704 47.4375 148.656 44.1571C150.609 40.8766 153.337 38.1252 156.6 36.144ZM58.88 101.82L65.712 65.712L101.8 58.88C105.513 57.9576 109.395 57.9634 113.105 58.8968C116.815 59.8302 120.238 61.6625 123.072 64.232L131.4 72.544V131.4H72.544L64.232 123.088C61.6658 120.253 59.8357 116.83 58.9024 113.122C57.9692 109.413 57.9615 105.532 58.88 101.82ZM36.144 217.4L15.468 187L36.14 156.628C38.1161 153.361 40.8635 150.63 44.1412 148.672C47.419 146.714 51.127 145.591 54.94 145.4H66.728L108.376 187L66.748 228.6H54.96C51.1469 228.414 47.4375 227.296 44.157 225.344C40.8766 223.391 38.1252 220.663 36.144 217.4ZM101.82 315.12L65.712 308.288L58.88 272.2C57.9611 268.487 57.9687 264.605 58.9019 260.896C59.8351 257.187 61.6655 253.764 64.232 250.928L72.544 242.6H131.4V301.456L123.088 309.768C120.254 312.336 116.831 314.167 113.123 315.101C109.414 316.034 105.532 316.041 101.82 315.12ZM217.4 337.856L187 358.532L156.628 337.86C153.361 335.884 150.63 333.137 148.672 329.859C146.714 326.581 145.591 322.873 145.4 319.06V307.252L187 265.624L228.6 307.252V319.04C228.414 322.853 227.296 326.562 225.344 329.843C223.391 333.123 220.663 335.875 217.4 337.856ZM315.12 272.2L308.288 308.304L272.2 315.12C268.487 316.041 264.604 316.035 260.893 315.102C257.183 314.168 253.759 312.337 250.924 309.768L242.6 301.456V242.6H301.456L309.768 250.912C312.337 253.75 314.169 257.175 315.102 260.888C316.036 264.6 316.042 268.485 315.12 272.2ZM337.86 217.4C335.884 220.667 333.137 223.398 329.859 225.356C326.581 227.314 322.873 228.437 319.06 228.628H307.252L265.624 187L307.252 145.4H319.04C322.85 145.588 326.556 146.708 329.834 148.66C333.111 150.613 335.86 153.339 337.84 156.6L358.516 187L337.86 217.4Z" fill="#F0F8F4"/>
</svg>
