<svg xmlns="http://www.w3.org/2000/svg" version="1.1" xmlns:xlink="http://www.w3.org/1999/xlink" xmlns:svgjs="http://svgjs.com/svgjs" width="512" height="512" x="0" y="0" viewBox="0 0 60 60" style="enable-background:new 0 0 512 512" xml:space="preserve" class=""><g><g fill="none" fill-rule="nonzero"><path fill="#ffdfb1" d="M35.76 19.75a4.268 4.268 0 0 1-1.24 6.86 4.372 4.372 0 0 1-4.88-.98l-2.83-2.82-2.83-2.83-3.83-3.84a1 1 0 0 0-1.1-.21 10.34 10.34 0 0 1-4.29.83A10.7 10.7 0 0 1 8.55 15H3a2.006 2.006 0 0 1-2-2V3a2.006 2.006 0 0 1 2-2h22.28a6 6 0 0 1 4.51 2.05L40.87 15.7A17.372 17.372 0 0 0 36 15a16.953 16.953 0 0 0-4.42.58c1.46 1.45 2.72 2.71 3.46 3.46h.01z" data-original="#ffdfb1"></path><path fill="#dec39b" d="M35.05 19.04h-.01c-.74-.75-2-2.01-3.46-3.46a16.858 16.858 0 0 1 2.921-.507A16.931 16.931 0 0 0 33 15a16.953 16.953 0 0 0-4.42.58c1.46 1.45 2.72 2.71 3.46 3.46h.01l.71.71a4.268 4.268 0 0 1-1.24 6.86c-.075.035-.154.054-.23.083a4.178 4.178 0 0 0 3.23-.083 4.268 4.268 0 0 0 1.24-6.86zM26.79 3.05l10.511 12c1.209.092 2.405.31 3.569.649L29.79 3.05A6 6 0 0 0 25.28 1h-3a6 6 0 0 1 4.51 2.05z" data-original="#dec39b"></path><rect width="46" height="6" x="13" y="45" fill="#02a8f3" rx="1" data-original="#02a8f3"></rect><path fill="#0377bb" d="M58 45h-3a1 1 0 0 1 1 1v4a1 1 0 0 1-1 1h3a1 1 0 0 0 1-1v-4a1 1 0 0 0-1-1z" data-original="#0377bb"></path><path fill="#ff9701" d="M36 45H25.05a16.994 16.994 0 0 1-1.07-25.02l2.83 2.83A13 13 0 0 0 36 45zM53 32a16.952 16.952 0 0 1-6.05 13H36c7.18 0 13-5.82 13-13s-5.82-13-13-13c-.32 0-.63.01-.95.04h-.01c-.74-.75-2-2.01-3.46-3.46A16.953 16.953 0 0 1 36 15c1.648.001 3.288.237 4.87.7v.01A16.993 16.993 0 0 1 53 32z" data-original="#ff9701"></path><path fill="#ffdb00" d="M49 32a13 13 0 1 1-22.19-9.19l2.83 2.82a4.372 4.372 0 0 0 4.88.98 4.268 4.268 0 0 0 1.24-6.86l-.71-.71c.32-.03.63-.04.95-.04 7.177.007 12.993 5.823 13 13z" data-original="#ffdb00"></path><path fill="#fdc008" d="M26.64 25.63a4.387 4.387 0 0 0 4.65 1.063 4.654 4.654 0 0 1-1.65-1.063l-2.83-2.82c-.499.505-.955 1.05-1.366 1.628zM36 19c-.32 0-.63.01-.95.04l.163.163a12.988 12.988 0 0 1-.713 25.7A13 13 0 1 0 36 19z" data-original="#fdc008"></path><path fill="#3f51b4" d="M58 51v7a1 1 0 0 1-1 1H15a1 1 0 0 1-1-1v-7z" data-original="#3f51b4"></path><path fill="#283592" d="M55 51v7a1 1 0 0 1-1 1h3a1 1 0 0 0 1-1v-7z" data-original="#283592"></path><path fill="#000000" d="M58 44h-8.615a17.966 17.966 0 0 0-7.942-29.154L30.542 2.39A7 7 0 0 0 25.28 0H3a3 3 0 0 0-3 3v10a3 3 0 0 0 3 3h5.24a11.812 11.812 0 0 0 6.52 1.755 11.319 11.319 0 0 0 4.68-.906l3.16 3.163c-6.14 6.82-6.134 17.177.015 23.988H14a2 2 0 0 0-2 2v4a1.993 1.993 0 0 0 1 1.722V58a2 2 0 0 0 2 2h42a2 2 0 0 0 2-2v-6.278A1.993 1.993 0 0 0 60 50v-4a2 2 0 0 0-2-2zm-6-12a15.964 15.964 0 0 1-5.444 12h-3.382A13.986 13.986 0 0 0 36 18c-.186 0-.372.016-.558.023L33.6 16.185A16.207 16.207 0 0 1 36 16c8.832.01 15.99 7.168 16 16zm-23.067-5.658a5.583 5.583 0 0 0 2.091 1.3c-.009.119-.024.238-.024.356a5.009 5.009 0 0 0 4 4.9v5.917A3 3 0 0 1 33 36a1 1 0 0 0-2 0 5.009 5.009 0 0 0 4 4.9v.1a1 1 0 0 0 2 0v-.1a5 5 0 0 0 0-9.8v-5.278a5.12 5.12 0 0 0 .318-.5A3 3 0 0 1 39 28a1 1 0 0 0 2 0 5.012 5.012 0 0 0-3.069-4.6 5.333 5.333 0 0 0-.668-3.331c6.428.68 11.162 6.33 10.707 12.777-.454 6.448-5.934 11.377-12.393 11.149C29.117 43.767 23.999 38.464 24 32a11.9 11.9 0 0 1 2.847-7.744zM37 33.184a2.982 2.982 0 0 1 0 5.632zm-2-2.368A3 3 0 0 1 33 28v-.031a5.016 5.016 0 0 0 1.929-.447c.023-.01.044-.024.067-.035zM18.637 15.021a9.427 9.427 0 0 1-3.877.734c-5.39 0-7.557-3.246-7.8-4.049a1 1 0 1 0-1.912.588c.225.62.555 1.197.975 1.706H3a1 1 0 0 1-1-1V3a1 1 0 0 1 1-1h22.28c1.44.002 2.81.625 3.758 1.708l9.133 10.436a17.314 17.314 0 0 0-6.274.335l-8.19-8.186a1 1 0 0 0-1.414 1.414l12.107 12.1.653.652a3.267 3.267 0 0 1 .872 2.9 3.139 3.139 0 0 1-1.825 2.346 3.373 3.373 0 0 1-3.752-.777l-9.493-9.493a2 2 0 0 0-2.218-.414zM20 32a15.867 15.867 0 0 1 4.017-10.574l1.416 1.416A13.949 13.949 0 0 0 28.826 44h-3.382A15.964 15.964 0 0 1 20 32zm-6 14h44v4H14zm1 12v-6h42v6z" data-original="#000000"></path></g></g></svg>