<svg xmlns="http://www.w3.org/2000/svg" version="1.1" xmlns:xlink="http://www.w3.org/1999/xlink" xmlns:svgjs="http://svgjs.com/svgjs" width="512" height="512" x="0" y="0" viewBox="0 0 512 512" style="enable-background:new 0 0 512 512" xml:space="preserve" class=""><g><path fill="#ffb30f" d="M307 177h10v70h-10zM190 69h10v50h-10z" data-original="#ffb30f"></path><path fill="#399349" d="M175 118.7h40v210h-40z" data-original="#399349"></path><path fill="#399349" d="M150 278.7h260v140H150z" data-original="#399349"></path><path fill="#2b6e38" d="M150 373.7h260v45H150z" data-original="#2b6e38"></path><path fill="#ffb30f" d="M168 198.7h54v20h-54zM168 118.7h54v20h-54z" data-original="#ffb30f"></path><path fill="#ffcb5d" d="M195 98.7c-11 0-20 9-20 20h40c0-11-9-20-20-20zM312.5 206.2c-40 0-72.5 32.5-72.5 72.5h145c0-40-32.5-72.5-72.5-72.5zM190 169h10v30h-10zM190 249h10v30h-10z" data-original="#ffcb5d" class=""></path><g fill="#ffb30f"><path d="M312.5 328.7c-13.8 0-25 11.2-25 25v65h50v-65c0-13.8-11.2-25-25-25zM410 328.7c-13.8 0-25 11.2-25 25v65h25zM215 328.7c-13.8 0-25 11.2-25 25v65h50v-65c0-13.8-11.2-25-25-25z" fill="#ffb30f" data-original="#ffb30f"></path></g><path fill="#ffcb5d" d="M301 417.3c-113.8 0-206-92.2-206-206C95 104.8 176.3 17.7 280 7c-7.8-.7-16.1-1.7-24-1.7-138.6 0-251 112.4-251 251s112.4 251 251 251 251-112.4 251-251c0-7.9-1.3-15.5-2-23.3-10.7 103.7-97.5 184.3-204 184.3z" data-original="#ffcb5d" class=""></path><path fill="#ffe3a9" d="M507 256.3c0 138.6-112.4 251-251 251S5 394.9 5 256.3s112.4-251 251-251c4 0 8 .3 12.1.6 0 0 0 .1-.1.3-121.2 5.3-218 105-218 227.6C50 360 152.3 462.3 278.5 462.3c122.6 0 222.1-96.5 227.5-217.6.2 0 .3-.1.3-.1.4 3.9.7 7.7.7 11.7z" data-original="#ffe3a9" class=""></path><path fill="#ffb30f" d="m410 156.5 24.7 16.5-8-28.6L450 126l-29.7-1.1L410 97l-10.3 27.9L370 126l23.3 18.4-8 28.6zM110 214.5l24.7 16.5-8-28.6L150 184l-29.7-1.1L110 155l-10.3 27.9L70 184l23.3 18.4-8 28.6z" data-original="#ffb30f"></path><g fill="#2b6e38"><path d="M175 138.7h40v20h-40zM175 218.7h40v20h-40z" fill="#2b6e38" data-original="#2b6e38"></path></g></g></svg>