<svg xmlns="http://www.w3.org/2000/svg" version="1.1" xmlns:xlink="http://www.w3.org/1999/xlink" xmlns:svgjs="http://svgjs.com/svgjs" width="512" height="512" x="0" y="0" viewBox="0 0 682.667 682.667" style="enable-background:new 0 0 512 512" xml:space="preserve" class=""><g><defs><clipPath id="a" clipPathUnits="userSpaceOnUse"><path d="M0 512h512V0H0Z" fill="#000000" data-original="#000000"></path></clipPath></defs><path d="M7.5 360.209h96.193v30.061H7.5Z" style="fill-opacity:1;fill-rule:nonzero;stroke:none" transform="matrix(1.33333 0 0 -1.33333 0 682.667)" fill="#99f5d2" data-original="#99f5d2"></path><path d="M83.653 360.209h20.04v30.061h-20.04z" style="fill-opacity:1;fill-rule:nonzero;stroke:none" transform="matrix(1.33333 0 0 -1.33333 0 682.667)" fill="#00f0a3" data-original="#00f0a3"></path><path d="M18.522 9.504H92.67V360.21H18.522Z" style="fill-opacity:1;fill-rule:nonzero;stroke:none" transform="matrix(1.33333 0 0 -1.33333 0 682.667)" fill="#daeaef" data-original="#daeaef" class=""></path><g clip-path="url(#a)" transform="matrix(1.33333 0 0 -1.33333 0 682.667)"><path d="M0 0v-20.04h48.097a6.012 6.012 0 0 0 6.011-6.012v-324.654h20.04V0Z" style="fill-opacity:1;fill-rule:nonzero;stroke:none" transform="translate(18.523 360.21)" fill="#a8d0d5" data-original="#a8d0d5"></path><path d="M0 0c20.476 0 37.074-16.599 37.074-37.075v-17.034h-74.148v17.034C-37.074-16.599-20.476 0 0 0" style="fill-opacity:1;fill-rule:nonzero;stroke:none" transform="translate(55.597 444.379)" fill="#fcee56" data-original="#fcee56" class=""></path><path d="M0 0a39.968 39.968 0 0 0 3.405-16.177c0-15.867-9.22-29.578-22.595-36.073h44.639v17.034C25.449-18.802 14.779-4.878 0 0" style="fill-opacity:1;fill-rule:nonzero;stroke:none" transform="translate(67.222 442.52)" fill="#fbd307" data-original="#fbd307"></path><path d="M0 0c0 63.641 51.591 115.232 115.231 115.232 63.641 0 115.232-51.591 115.232-115.232Z" style="fill-opacity:1;fill-rule:nonzero;stroke:none" transform="translate(140.769 325.14)" fill="#fcee56" data-original="#fcee56" class=""></path><path d="M0 0c0-31.523-15.408-59.443-39.099-76.654H72.145c0 50.545-32.545 93.485-77.823 109.018C-2.006 22.266 0 11.368 0 0" style="fill-opacity:1;fill-rule:nonzero;stroke:none" transform="translate(299.087 401.793)" fill="#fbd307" data-original="#fbd307"></path><path d="M371.231 295.079H140.768v30.061h230.463z" style="fill-opacity:1;fill-rule:nonzero;stroke:none" fill="#99f5d2" data-original="#99f5d2"></path><path d="M140.769 295.079h230.463v14.028H140.769Z" style="fill-opacity:1;fill-rule:nonzero;stroke:none" fill="#00f0a3" data-original="#00f0a3"></path><path d="M140.769 295.079h230.463v14.028H140.769Z" style="fill-opacity:1;fill-rule:nonzero;stroke:none" fill="#00f0a3" data-original="#00f0a3"></path><path d="M504.5 360.209h-96.193v30.061H504.5Z" style="fill-opacity:1;fill-rule:nonzero;stroke:none" fill="#99f5d2" data-original="#99f5d2"></path><path d="M484.46 360.209h20.04v30.061h-20.04Z" style="fill-opacity:1;fill-rule:nonzero;stroke:none" fill="#00f0a3" data-original="#00f0a3"></path><path d="M386.262 265.018H125.739v30.061h260.523z" style="fill-opacity:1;fill-rule:nonzero;stroke:none" fill="#99f5d2" data-original="#99f5d2"></path><path d="M125.738 265.018h260.523v14.028H125.738Z" style="fill-opacity:1;fill-rule:nonzero;stroke:none" fill="#00f0a3" data-original="#00f0a3"></path><path d="M125.738 265.018h260.523v14.028H125.738Z" style="fill-opacity:1;fill-rule:nonzero;stroke:none" fill="#00f0a3" data-original="#00f0a3"></path><path d="M419.329 9.504H92.671v255.514h326.658z" style="fill-opacity:1;fill-rule:nonzero;stroke:none" fill="#daeaef" data-original="#daeaef" class=""></path><path d="M400.29 9.504h19.039v255.514H400.29Z" style="fill-opacity:1;fill-rule:nonzero;stroke:none" fill="#a8d0d5" data-original="#a8d0d5"></path><path d="M0 0h54.108v96.194C54.108 152.307 0 175.353 0 175.353s-54.108-23.046-54.108-79.159V0Z" style="fill-opacity:1;fill-rule:nonzero;stroke:none" transform="translate(256 9.504)" fill="#688b96" data-original="#688b96"></path><path d="M0 0h25.354v45.074C25.354 71.367 0 82.166 0 82.166s-25.354-10.799-25.354-37.092V0Z" style="fill-opacity:1;fill-rule:nonzero;stroke:none" transform="translate(368.615 70.627)" fill="#688b96" data-original="#688b96"></path><path d="M0 0h-25.354v45.074C-25.354 71.367 0 82.166 0 82.166s25.354-10.799 25.354-37.092V0Z" style="fill-opacity:1;fill-rule:nonzero;stroke:none" transform="translate(143.385 70.627)" fill="#688b96" data-original="#688b96"></path><path d="M493.478 9.504H419.33V360.21h74.148z" style="fill-opacity:1;fill-rule:nonzero;stroke:none" fill="#daeaef" data-original="#daeaef" class=""></path><path d="M0 0v-20.04h48.097a6.012 6.012 0 0 0 6.011-6.012v-324.654h20.04V0Z" style="fill-opacity:1;fill-rule:nonzero;stroke:none" transform="translate(419.33 360.21)" fill="#a8d0d5" data-original="#a8d0d5"></path><path d="M0 0c-20.476 0-37.074-16.599-37.074-37.075v-17.034h74.148v17.034C37.074-16.599 20.476 0 0 0" style="fill-opacity:1;fill-rule:nonzero;stroke:none" transform="translate(456.403 444.379)" fill="#fcee56" data-original="#fcee56" class=""></path><path d="M0 0c2.099-4.874 3.335-10.513 3.335-16.143 0-15.866-9.221-29.577-22.596-36.072h44.64v17.034C25.379-18.793 14.742-4.899 0 0" style="fill-opacity:1;fill-rule:nonzero;stroke:none" transform="translate(468.099 442.485)" fill="#fbd307" data-original="#fbd307"></path><path d="M0 0v-20.041" style="stroke-width:15;stroke-linecap:round;stroke-linejoin:round;stroke-miterlimit:10;stroke-dasharray:none;stroke-opacity:1" transform="translate(55.597 330.15)" fill="none" stroke="#000000" stroke-width="15" stroke-linecap="round" stroke-linejoin="round" stroke-miterlimit="10" stroke-dasharray="none" stroke-opacity="" data-original="#000000" class=""></path><path d="M0 0v-20.041" style="stroke-width:15;stroke-linecap:round;stroke-linejoin:round;stroke-miterlimit:10;stroke-dasharray:none;stroke-opacity:1" transform="translate(56.599 464.42)" fill="none" stroke="#000000" stroke-width="15" stroke-linecap="round" stroke-linejoin="round" stroke-miterlimit="10" stroke-dasharray="none" stroke-opacity="" data-original="#000000" class=""></path><path d="M0 0v-20.041" style="stroke-width:15;stroke-linecap:round;stroke-linejoin:round;stroke-miterlimit:10;stroke-dasharray:none;stroke-opacity:1" transform="translate(55.597 278.044)" fill="none" stroke="#000000" stroke-width="15" stroke-linecap="round" stroke-linejoin="round" stroke-miterlimit="10" stroke-dasharray="none" stroke-opacity="" data-original="#000000" class=""></path><path d="M0 0v17.034C0 37.51 16.599 54.109 37.074 54.109c20.476 0 37.074-16.599 37.074-37.075V0" style="stroke-width:15;stroke-linecap:round;stroke-linejoin:round;stroke-miterlimit:10;stroke-dasharray:none;stroke-opacity:1" transform="translate(18.523 390.27)" fill="none" stroke="#000000" stroke-width="15" stroke-linecap="round" stroke-linejoin="round" stroke-miterlimit="10" stroke-dasharray="none" stroke-opacity="" data-original="#000000" class=""></path><path d="M7.5 360.209h96.193v30.061H7.5Z" style="stroke-width:15;stroke-linecap:round;stroke-linejoin:round;stroke-miterlimit:10;stroke-dasharray:none;stroke-opacity:1" fill="none" stroke="#000000" stroke-width="15" stroke-linecap="round" stroke-linejoin="round" stroke-miterlimit="10" stroke-dasharray="none" stroke-opacity="" data-original="#000000" class=""></path><path d="M0 0c0 63.641 51.591 115.232 115.231 115.232 63.641 0 115.232-51.591 115.232-115.232" style="stroke-width:15;stroke-linecap:round;stroke-linejoin:round;stroke-miterlimit:10;stroke-dasharray:none;stroke-opacity:1" transform="translate(140.769 325.14)" fill="none" stroke="#000000" stroke-width="15" stroke-linecap="round" stroke-linejoin="round" stroke-miterlimit="10" stroke-dasharray="none" stroke-opacity="" data-original="#000000" class=""></path><path d="M0 0v30.061h230.463V0" style="stroke-width:15;stroke-linecap:round;stroke-linejoin:round;stroke-miterlimit:10;stroke-dasharray:none;stroke-opacity:1" transform="translate(140.769 295.079)" fill="none" stroke="#000000" stroke-width="15" stroke-linecap="round" stroke-linejoin="round" stroke-miterlimit="10" stroke-dasharray="none" stroke-opacity="" data-original="#000000" class=""></path><path d="M0 0v30.061h260.523V0" style="stroke-width:15;stroke-linecap:round;stroke-linejoin:round;stroke-miterlimit:10;stroke-dasharray:none;stroke-opacity:1" transform="translate(125.738 265.018)" fill="none" stroke="#000000" stroke-width="15" stroke-linecap="round" stroke-linejoin="round" stroke-miterlimit="10" stroke-dasharray="none" stroke-opacity="" data-original="#000000" class=""></path><path d="M0 0h25.354v45.074C25.354 71.367 0 82.166 0 82.166s-25.354-10.799-25.354-37.092V0Z" style="stroke-width:15;stroke-linecap:round;stroke-linejoin:round;stroke-miterlimit:10;stroke-dasharray:none;stroke-opacity:1" transform="translate(368.615 70.627)" fill="none" stroke="#000000" stroke-width="15" stroke-linecap="round" stroke-linejoin="round" stroke-miterlimit="10" stroke-dasharray="none" stroke-opacity="" data-original="#000000" class=""></path><path d="M0 0h-25.354v45.074C-25.354 71.367 0 82.166 0 82.166s25.354-10.799 25.354-37.092V0Z" style="stroke-width:15;stroke-linecap:round;stroke-linejoin:round;stroke-miterlimit:10;stroke-dasharray:none;stroke-opacity:1" transform="translate(143.385 70.627)" fill="none" stroke="#000000" stroke-width="15" stroke-linecap="round" stroke-linejoin="round" stroke-miterlimit="10" stroke-dasharray="none" stroke-opacity="" data-original="#000000" class=""></path><path d="M0 0v96.194c0 56.113-54.108 79.159-54.108 79.159s-54.109-23.046-54.109-79.159V0" style="stroke-width:15;stroke-linecap:round;stroke-linejoin:round;stroke-miterlimit:10;stroke-dasharray:none;stroke-opacity:1" transform="translate(310.108 9.504)" fill="none" stroke="#000000" stroke-width="15" stroke-linecap="round" stroke-linejoin="round" stroke-miterlimit="10" stroke-dasharray="none" stroke-opacity="" data-original="#000000" class=""></path><path d="M0 0v-20.041" style="stroke-width:15;stroke-linecap:round;stroke-linejoin:round;stroke-miterlimit:10;stroke-dasharray:none;stroke-opacity:1" transform="translate(456.403 330.15)" fill="none" stroke="#000000" stroke-width="15" stroke-linecap="round" stroke-linejoin="round" stroke-miterlimit="10" stroke-dasharray="none" stroke-opacity="" data-original="#000000" class=""></path><path d="M0 0v-20.04" style="stroke-width:15;stroke-linecap:round;stroke-linejoin:round;stroke-miterlimit:10;stroke-dasharray:none;stroke-opacity:1" transform="translate(256 460.411)" fill="none" stroke="#000000" stroke-width="15" stroke-linecap="round" stroke-linejoin="round" stroke-miterlimit="10" stroke-dasharray="none" stroke-opacity="" data-original="#000000" class=""></path><path d="M0 0v-20.041" style="stroke-width:15;stroke-linecap:round;stroke-linejoin:round;stroke-miterlimit:10;stroke-dasharray:none;stroke-opacity:1" transform="translate(455.401 464.42)" fill="none" stroke="#000000" stroke-width="15" stroke-linecap="round" stroke-linejoin="round" stroke-miterlimit="10" stroke-dasharray="none" stroke-opacity="" data-original="#000000" class=""></path><path d="M0 0v-20.041" style="stroke-width:15;stroke-linecap:round;stroke-linejoin:round;stroke-miterlimit:10;stroke-dasharray:none;stroke-opacity:1" transform="translate(456.403 278.044)" fill="none" stroke="#000000" stroke-width="15" stroke-linecap="round" stroke-linejoin="round" stroke-miterlimit="10" stroke-dasharray="none" stroke-opacity="" data-original="#000000" class=""></path><path d="M0 0h-20.041" style="stroke-width:15;stroke-linecap:round;stroke-linejoin:round;stroke-miterlimit:10;stroke-dasharray:none;stroke-opacity:1" transform="translate(466.424 207.903)" fill="none" stroke="#000000" stroke-width="15" stroke-linecap="round" stroke-linejoin="round" stroke-miterlimit="10" stroke-dasharray="none" stroke-opacity="" data-original="#000000" class=""></path><path d="M0 0h20.041" style="stroke-width:15;stroke-linecap:round;stroke-linejoin:round;stroke-miterlimit:10;stroke-dasharray:none;stroke-opacity:1" transform="translate(45.576 207.903)" fill="none" stroke="#000000" stroke-width="15" stroke-linecap="round" stroke-linejoin="round" stroke-miterlimit="10" stroke-dasharray="none" stroke-opacity="" data-original="#000000" class=""></path><path d="M0 0v-89.567h-74.148" style="stroke-width:15;stroke-linecap:round;stroke-linejoin:round;stroke-miterlimit:10;stroke-dasharray:none;stroke-opacity:1" transform="translate(493.478 99.071)" fill="none" stroke="#000000" stroke-width="15" stroke-linecap="round" stroke-linejoin="round" stroke-miterlimit="10" stroke-dasharray="none" stroke-opacity="" data-original="#000000" class=""></path><path d="M0 0v95.191h74.148V-130.75" style="stroke-width:15;stroke-linecap:round;stroke-linejoin:round;stroke-miterlimit:10;stroke-dasharray:none;stroke-opacity:1" transform="translate(419.33 265.018)" fill="none" stroke="#000000" stroke-width="15" stroke-linecap="round" stroke-linejoin="round" stroke-miterlimit="10" stroke-dasharray="none" stroke-opacity="" data-original="#000000" class=""></path><path d="M0 0v-89.567h74.148" style="stroke-width:15;stroke-linecap:round;stroke-linejoin:round;stroke-miterlimit:10;stroke-dasharray:none;stroke-opacity:1" transform="translate(18.523 99.071)" fill="none" stroke="#000000" stroke-width="15" stroke-linecap="round" stroke-linejoin="round" stroke-miterlimit="10" stroke-dasharray="none" stroke-opacity="" data-original="#000000" class=""></path><path d="M0 0v95.191h-74.148V-130.75" style="stroke-width:15;stroke-linecap:round;stroke-linejoin:round;stroke-miterlimit:10;stroke-dasharray:none;stroke-opacity:1" transform="translate(92.67 265.018)" fill="none" stroke="#000000" stroke-width="15" stroke-linecap="round" stroke-linejoin="round" stroke-miterlimit="10" stroke-dasharray="none" stroke-opacity="" data-original="#000000" class=""></path><path d="M0 0h145.803v-255.514h-326.658V0h145.65" style="stroke-width:15;stroke-linecap:round;stroke-linejoin:round;stroke-miterlimit:10;stroke-dasharray:none;stroke-opacity:1" transform="translate(273.526 265.018)" fill="none" stroke="#000000" stroke-width="15" stroke-linecap="round" stroke-linejoin="round" stroke-miterlimit="10" stroke-dasharray="none" stroke-opacity="" data-original="#000000" class=""></path><path d="M0 0h260.523" style="stroke-width:15;stroke-linecap:round;stroke-linejoin:round;stroke-miterlimit:10;stroke-dasharray:none;stroke-opacity:1" transform="translate(125.738 225.94)" fill="none" stroke="#000000" stroke-width="15" stroke-linecap="round" stroke-linejoin="round" stroke-miterlimit="10" stroke-dasharray="none" stroke-opacity="" data-original="#000000" class=""></path><path d="M0 0v17.034C0 37.51-16.599 54.109-37.074 54.109c-20.476 0-37.074-16.599-37.074-37.075V0" style="stroke-width:15;stroke-linecap:round;stroke-linejoin:round;stroke-miterlimit:10;stroke-dasharray:none;stroke-opacity:1" transform="translate(493.478 390.27)" fill="none" stroke="#000000" stroke-width="15" stroke-linecap="round" stroke-linejoin="round" stroke-miterlimit="10" stroke-dasharray="none" stroke-opacity="" data-original="#000000" class=""></path><path d="M504.5 360.209h-96.193v30.061H504.5Z" style="stroke-width:15;stroke-linecap:round;stroke-linejoin:round;stroke-miterlimit:10;stroke-dasharray:none;stroke-opacity:1" fill="none" stroke="#000000" stroke-width="15" stroke-linecap="round" stroke-linejoin="round" stroke-miterlimit="10" stroke-dasharray="none" stroke-opacity="" data-original="#000000" class=""></path><path d="M0 0a19.947 19.947 0 0 0-5.67-11.335c-7.826-7.827-20.515-7.827-28.341 0-7.826 7.826-7.826 20.515 0 28.341a19.955 19.955 0 0 0 11.335 5.669" style="stroke-width:15;stroke-linecap:round;stroke-linejoin:round;stroke-miterlimit:10;stroke-dasharray:none;stroke-opacity:1" transform="translate(275.94 479.82)" fill="none" stroke="#000000" stroke-width="15" stroke-linecap="round" stroke-linejoin="round" stroke-miterlimit="10" stroke-dasharray="none" stroke-opacity="" data-original="#000000" class=""></path></g></g></svg>