<svg xmlns="http://www.w3.org/2000/svg" version="1.1" xmlns:xlink="http://www.w3.org/1999/xlink" xmlns:svgjs="http://svgjs.com/svgjs" width="512" height="512" x="0" y="0" viewBox="0 0 512 512" style="enable-background:new 0 0 512 512" xml:space="preserve" class=""><g><path fill="#b24e10" d="m405 507-149-65.6L107 507V376h298z" data-original="#b24e10"></path><path fill="#e36415" d="M507 291 256 401 5 291v40l205.5 90.4L107 467v40l149-65.6L405 507v-40l-103.5-45.6L507 331z" data-original="#e36415"></path><path fill="#399349" d="M256 115 33 17.3C19.8 11.5 5 21.2 5 35.6V291l216.8 95h68.5L507 291V35.6c0-14.4-14.8-24.1-28-18.3z" data-original="#399349"></path><path fill="#ffcb5d" d="M207.7 45.2C172.3 26 82.6 5 82.6 5L35 50.6v220.9L233.2 359H256V115s-13-50.5-48.3-69.8z" data-original="#ffcb5d"></path><path fill="#ffe3a9" d="M83 5.1v287.6l-48-21.2V50.6L82.6 5s.1 0 .4.1z" data-original="#ffe3a9"></path><path fill="#ffcb5d" d="M304.3 45.2C339.7 26 429.4 5 429.4 5L477 50.6v220.9L278.8 359H256V115s13-50.5 48.3-69.8z" data-original="#ffcb5d"></path><path fill="#ffb30f" d="M251 115h10v244h-10z" data-original="#ffb30f"></path><path fill="#ffe3a9" d="M429 5.1v287.6l48-21.2V50.6L429.4 5s-.4 0-.4.1z" data-original="#ffe3a9"></path><path fill="#ffcb5d" d="M448 66h10v204h-10z" data-original="#ffcb5d"></path><path fill="#ffb30f" d="m477 271.5-47.6-35.6s-89.7 21.1-125.1 40.4C269 295.7 256 359 256 359h22.8z" data-original="#ffb30f"></path><path fill="#399349" d="m114.986 50.05 94.41 32.435-3.25 9.46-94.41-32.435zM114.983 98.765l94.41 32.435-3.25 9.46-94.41-32.435zM115.014 147.386l94.41 32.435-3.25 9.46-94.41-32.435zM115.01 196.101l94.411 32.435-3.25 9.46-94.41-32.435z" data-original="#399349"></path><path fill="#ffcb5d" d="M54 66h10v204H54z" data-original="#ffcb5d"></path><path fill="#ffb30f" d="m35 271.5 47.6-35.6s89.7 21.1 125.1 40.4C243 295.7 256 359 256 359h-22.8z" data-original="#ffb30f"></path><path fill="#ffcb5d" d="m53.9 257.4 148.2 59.4 3.8-9.3-142.6-57.2z" data-original="#ffcb5d"></path><path fill="#399349" d="m400.226 59.421-94.41 32.435-3.25-9.46 94.41-32.435zM400.224 108.04l-94.41 32.436-3.25-9.46 94.41-32.435zM400.254 156.754l-94.41 32.435-3.25-9.46 94.41-32.435zM400.251 205.371l-94.41 32.435-3.25-9.46L397 195.911z" data-original="#399349"></path><path fill="#ffcb5d" d="m458.1 257.4-148.2 59.4-3.8-9.3 142.6-57.2z" data-original="#ffcb5d"></path><path fill="#2b6e38" d="M256 327.5c-12.6 0-22.8 10.2-22.8 22.8v8.7h45.5v-8.7c.1-12.6-10.1-22.8-22.7-22.8z" data-original="#2b6e38"></path><path fill="#e86b4d" d="m338 300.1-30 12.1v66l15-26.6 15 13.5z" data-original="#e86b4d"></path></g></svg>