<svg width="525.7199920654298" height="129.82903163420858" viewBox="0 0 389.9130434782609 96.29086513801322" class="css-1j8o68f"><defs id="SvgjsDefs1671"></defs><g id="SvgjsG1672" featurekey="v37d4h-0" transform="matrix(1.3108396759171552,0,0,1.3108396759171552,16.067480972248536,16.198564814828835)" fill="#111111"><path xmlns="http://www.w3.org/2000/svg" d="M51,45.2V28.8c-1-0.5-1.6-1.5-1.6-2.6l0,0c0-1.6,0.9-3,2.3-3.8l2.3-1.2v-1c0-0.6,0.4-1,1-1s1,0.4,1,1v1.2  l2.1,1.1c1.4,0.7,2.3,2.2,2.3,3.8l0,0c0,1-0.5,2-1.4,2.5v14.1c-0.1,0-0.1,0-0.2,0.1C56.3,44.1,53.7,44.8,51,45.2z M47,45.5  c-10.8,0.1-20.6-6.3-25-16.1c0.2-0.2,0.4-0.4,0.5-0.6c0.4-0.4,0.8-0.7,1.3-1.1c-1.5-0.6-2.8-1.8-3.4-3.3c-0.2-1-0.4-2.1-0.5-3.1  c0.3-3.5,2.3-6.6,5.5-8.1l7.5-3.7V8.1c0-0.1,0-0.1,0-0.2c-0.2-0.2-0.4-0.4-0.6-0.6c-1-1.3-0.8-3.2,0.5-4.2C33,3,33.3,2.9,33.5,2.9  l0,0c0.6,0,1,0.5,1,1c0,0.3-0.1,0.5-0.3,0.7l-0.1,0.1c-0.4,0.4-0.5,1-0.1,1.4c0.3,0.4,1,0.5,1.4,0.1l0,0c0.4-0.2,1-0.2,1.3,0.3  C37,6.9,37,7.6,36.5,7.9c-0.5,0.4-1,0.6-1.6,0.6l0,0v1l7.5,3.6c3.4,1.6,5.5,5.1,5.5,8.8l0,0c0,2.5-1.6,4.8-3.9,5.7  c2.4,1.7,3.9,4.5,3.9,7.4v10.4C47.7,45.5,47.4,45.5,47,45.5 M21.1,2.9L21.1,2.9c-0.2,0-0.3,0-0.4,0.1C9.9,8,3,18.7,3,30.5  c0,16.9,14,30.6,31.1,30.6l0,0c10.9,0,21.1-5.7,26.8-15c0.3-0.5,0.1-1.1-0.3-1.4c-0.2-0.1-0.3-0.1-0.5-0.1l0,0c-0.1,0-0.3,0-0.4,0.1  c-3.9,1.8-8.2,2.8-12.5,2.8H47c-16.1,0-29.1-12.8-29.1-28.6c0-5.1,1.4-10.2,4.1-14.5c0.3-0.5,0.1-1.1-0.3-1.4  C21.4,2.9,21.3,2.9,21.1,2.9L21.1,2.9z"></path></g><g id="SvgjsG1673" featurekey="UxBHKT-0" transform="matrix(2.323581124140467,0,0,2.323581124140467,115.73046419917884,29.382098811176945)" fill="#111111"><path d="M8.98 5.42 l5.6 13.22 q0.1 0.16 0.1 0.34 q0 0.28 -0.2 0.49 t-0.5 0.21 l-1.66 0 q-0.22 0 -0.39 -0.11 t-0.25 -0.31 l-1.46 -3.44 l-5.66 0 l-1.44 3.44 q-0.08 0.2 -0.25 0.31 t-0.39 0.11 l-1.66 0 q-0.18 0 -0.34 -0.09 t-0.25 -0.23 t-0.11 -0.31 t0.06 -0.33 l5.64 -13.3 q0.08 -0.2 0.25 -0.31 t0.39 -0.11 l1.88 0 q0.22 0 0.39 0.11 t0.25 0.31 z M7.4 9.06 l-1.66 3.98 l3.32 0 z M25.840000000000003 16.84 q0.3 0 0.5 0.21 t0.2 0.49 l0 1.44 q0 0.28 -0.2 0.49 t-0.5 0.21 l-8.74 0 q-0.28 0 -0.49 -0.21 t-0.21 -0.49 l0 -13.28 q0 -0.28 0.21 -0.49 t0.49 -0.21 l1.5 0 q0.28 0 0.49 0.21 t0.21 0.49 l0 11.14 l6.54 0 z M42.099999999999994 14.02 l2.98 4.58 q0.1 0.16 0.11 0.36 t-0.08 0.36 t-0.26 0.26 t-0.35 0.1 l-1.8 0 q-0.18 0 -0.34 -0.09 t-0.24 -0.23 l-3 -4.78 l-3.54 0 l0 4.4 q0 0.28 -0.21 0.49 t-0.49 0.21 l-1.5 0 q-0.28 0 -0.49 -0.21 t-0.21 -0.49 l0 -13.28 q0 -0.28 0.21 -0.49 t0.49 -0.21 l6.36 0 q2.3 0 3.73 1.31 t1.43 3.55 q0 1.44 -0.63 2.47 t-1.85 1.55 q-0.08 0.04 -0.26 0.12 z M35.58 7.82 l0 3.94 l3.9 0 q1.72 0 2.34 -0.98 q0.2 -0.36 0.2 -0.92 q0 -0.94 -0.62 -1.48 q-0.68 -0.56 -1.84 -0.56 l-3.98 0 z M54.86 5.42 l5.6 13.22 q0.1 0.16 0.1 0.34 q0 0.28 -0.2 0.49 t-0.5 0.21 l-1.66 0 q-0.22 0 -0.39 -0.11 t-0.25 -0.31 l-1.46 -3.44 l-5.66 0 l-1.44 3.44 q-0.08 0.2 -0.25 0.31 t-0.39 0.11 l-1.66 0 q-0.18 0 -0.34 -0.09 t-0.25 -0.23 t-0.11 -0.31 t0.06 -0.33 l5.64 -13.3 q0.08 -0.2 0.25 -0.31 t0.39 -0.11 l1.88 0 q0.22 0 0.39 0.11 t0.25 0.31 z M53.279999999999994 9.06 l-1.66 3.98 l3.32 0 z M74 5 q0.2 0 0.37 0.1 t0.25 0.27 t0.07 0.37 t-0.11 0.36 l-5.44 7.84 l0 5.04 q0 0.28 -0.21 0.49 t-0.49 0.21 l-1.5 0 q-0.28 0 -0.49 -0.21 t-0.21 -0.49 l0 -5.04 l-5.46 -7.84 q-0.1 -0.16 -0.11 -0.36 t0.07 -0.37 t0.25 -0.27 t0.37 -0.1 l1.82 0 q0.34 0 0.58 0.3 l3.92 5.64 l3.92 -5.64 q0.24 -0.3 0.58 -0.3 l1.82 0 z M88.04 5 q0.2 0 0.37 0.1 t0.25 0.27 t0.07 0.37 t-0.11 0.36 l-5.44 7.84 l0 5.04 q0 0.28 -0.21 0.49 t-0.49 0.21 l-1.5 0 q-0.28 0 -0.49 -0.21 t-0.21 -0.49 l0 -5.04 l-5.46 -7.84 q-0.1 -0.16 -0.11 -0.36 t0.07 -0.37 t0.25 -0.27 t0.37 -0.1 l1.82 0 q0.34 0 0.58 0.3 l3.92 5.64 l3.92 -5.64 q0.24 -0.3 0.58 -0.3 l1.82 0 z M97.72000000000001 5.42 l5.6 13.22 q0.1 0.16 0.1 0.34 q0 0.28 -0.2 0.49 t-0.5 0.21 l-1.66 0 q-0.22 0 -0.39 -0.11 t-0.25 -0.31 l-1.46 -3.44 l-5.66 0 l-1.44 3.44 q-0.08 0.2 -0.25 0.31 t-0.39 0.11 l-1.66 0 q-0.18 0 -0.34 -0.09 t-0.25 -0.23 t-0.11 -0.31 t0.06 -0.33 l5.64 -13.3 q0.08 -0.2 0.25 -0.31 t0.39 -0.11 l1.88 0 q0.22 0 0.39 0.11 t0.25 0.31 z M96.14000000000001 9.06 l-1.66 3.98 l3.32 0 z M117.30000000000001 5 q0.28 0 0.49 0.21 t0.21 0.49 l0 13.28 q0 0.28 -0.21 0.49 t-0.49 0.21 l-1.76 0 q-0.34 0 -0.56 -0.28 l-6.94 -9.5 l0 9.08 q0 0.28 -0.21 0.49 t-0.49 0.21 l-1.5 0 q-0.28 0 -0.49 -0.21 t-0.21 -0.49 l0 -13.28 q0 -0.28 0.21 -0.49 t0.49 -0.21 l1.74 0 q0.16 0 0.32 0.07 t0.24 0.21 l6.96 9.46 l0 -9.04 q0 -0.28 0.2 -0.49 t0.48 -0.21 l1.52 0 z"></path></g></svg>