<svg xmlns="http://www.w3.org/2000/svg" version="1.1" xmlns:xlink="http://www.w3.org/1999/xlink" xmlns:svgjs="http://svgjs.com/svgjs" width="512" height="512" x="0" y="0" viewBox="0 0 16.933 16.933" style="enable-background:new 0 0 512 512" xml:space="preserve" class=""><g><path fill="#38668c" d="M2.356 13.494a.265.265 0 0 0-.196.118l-1.586 2.38a.265.265 0 0 0 .219.412h8.468c.019 0 .035-.007.053-.01a2.375 2.375 0 0 1-2.11-2.9H2.381a.27.27 0 0 0-.025 0z" data-original="#38668c"></path><path fill="#ffc6a0" d="M12.17.53c1.027 0 1.853.821 1.853 1.842v.283c0 1.021-.826 1.843-1.852 1.843s-1.852-.822-1.852-1.843v-.283c0-1.021.826-1.843 1.852-1.843z" data-original="#ffc6a0"></path><path fill="#ffaf7a" d="M12.17.53c-.09 0-.177.008-.264.02a1.84 1.84 0 0 1 1.588 1.822v.283a1.84 1.84 0 0 1-1.588 1.822 1.843 1.843 0 0 0 2.117-1.822v-.283c0-1.02-.826-1.843-1.852-1.843z" data-original="#ffaf7a" class=""></path><path fill="#ffc6a0" d="M12.7 14.023c.293 0 .53.236.53.53v1.322c0 .293-.237.53-.53.53h3.175a.528.528 0 1 0 0-1.06h-.265a.528.528 0 0 1-.529-.528.792.792 0 0 0-.793-.794h-.794z" data-original="#ffc6a0"></path><path fill="#ffaf7a" d="M12.7 14.023c.293 0 .53.236.53.53h.528c.44 0 .794.353.794.793 0 .293.236.529.53.529h.264c.293 0 .529.236.529.53a.528.528 0 1 0 0-1.06h-.265a.528.528 0 0 1-.529-.528.792.792 0 0 0-.793-.794h-.794z" data-original="#ffaf7a" class=""></path><path fill="#2c5170" d="M7.204 13.494H2.381a.265.265 0 0 0-.22.117L.573 15.993a.265.265 0 0 0 .219.412h.389l1.507-2.263a.265.265 0 0 1 .221-.118h4.234a2.4 2.4 0 0 1 .06-.529z" data-original="#2c5170"></path><path fill="#e4eff8" d="M12.17 5.027a2.112 2.112 0 0 0-2.116 2.117v4.498h-.793a2.376 2.376 0 0 0-2.382 2.38 2.376 2.376 0 0 0 2.382 2.382h3.44c.292 0 .528-.236.528-.529v-1.323a.528.528 0 0 0-.529-.53h.794a1.32 1.32 0 0 0 1.323-1.322V7.144A2.112 2.112 0 0 0 12.7 5.027z" data-original="#e4eff8" class=""></path><path fill="#38668c" d="M12.17 2.381c.82 0 1.513-.243 1.759-.584A1.843 1.843 0 0 0 12.17.53c-.824 0-1.517.53-1.758 1.268.246.34.938.584 1.758.584z" data-original="#38668c"></path><path fill="#2c5170" d="M11.906 2.371c.087.006.175.01.265.01.82 0 1.512-.243 1.757-.583l.002-.002A1.846 1.846 0 0 0 11.906.55c.705.1 1.28.59 1.494 1.247-.22.303-.793.528-1.494.574z" data-original="#2c5170"></path><path fill="#c4dcf0" d="M12.17 5.027c1.174 0 2.118.944 2.118 2.117V12.7a1.32 1.32 0 0 1-1.323 1.323h.529a1.32 1.32 0 0 0 1.323-1.323V7.144A2.112 2.112 0 0 0 12.7 5.027z" data-original="#c4dcf0" class=""></path><path fill="#c4dcf0" d="M12.17 13.758c.294 0 .53.236.53.53v1.587c0 .293-.236.53-.53.53h.53c.293 0 .53-.237.53-.53v-1.587a.528.528 0 0 0-.53-.53z" data-original="#c4dcf0" class=""></path><path fill="#ffc6a0" d="m9.26 10.319-1.322.264c-.288.058-.53.236-.53.53 0 .293.236.529.53.529H9.26z" data-original="#ffc6a0"></path><path fill="#ffaf7a" d="m9.26 10.319-.529.106v.688H7.408c0 .293.236.529.53.529H9.26z" data-original="#ffaf7a" class=""></path><path fill="#e4eff8" d="M9.26 10.319c0-.293.237-.53.53-.53h.529c.44 0 .794-.353.794-.793V7.409c0-.734.59-1.324 1.322-1.324s1.323.59 1.323 1.323v1.324a2.903 2.903 0 0 1-2.909 2.91H9.261z" data-original="#e4eff8" class=""></path><g fill="#c4dcf0"><path d="M12.435 6.085a1.32 1.32 0 0 0-1.322 1.323v1.588c0 .44-.354.794-.794.794h.529c.44 0 .794-.354.794-.794V7.409A1.32 1.32 0 0 1 12.7 6.111a1.337 1.337 0 0 0-.265-.027z" fill="#c4dcf0" data-original="#c4dcf0" class=""></path><path d="M10.319 9.79h-.53a.528.528 0 0 0-.528.529v1.323h.529v-1.323c0-.293.236-.53.529-.53z" fill="#c4dcf0" data-original="#c4dcf0" class=""></path><path d="M13.491 6.617c.166.221.267.493.267.791v1.324a2.903 2.903 0 0 1-2.909 2.91H9.261v.264h1.853a2.903 2.903 0 0 0 2.909-2.91V7.674c0-.434-.21-.815-.532-1.056zM8.996 13.758c-.353 0-.353.53 0 .53H12.7c.353 0 .353-.53 0-.53z" fill="#c4dcf0" data-original="#c4dcf0" class=""></path></g></g></svg>