<svg xmlns="http://www.w3.org/2000/svg" version="1.1" xmlns:xlink="http://www.w3.org/1999/xlink" xmlns:svgjs="http://svgjs.com/svgjs" width="512" height="512" x="0" y="0" viewBox="0 0 356 356" style="enable-background:new 0 0 512 512" xml:space="preserve" class=""><g><linearGradient id="b" x1="0" x2="1" y1="0" y2="0" gradientTransform="scale(-293.066) rotate(-61.368 -.69 .691)" gradientUnits="userSpaceOnUse"><stop offset="0" stop-color="#d5edec"></stop><stop offset="1" stop-color="#b1b6f4"></stop></linearGradient><linearGradient id="c" x1="0" x2="1" y1="0" y2="0" gradientTransform="rotate(126.58 52.295 44.24) scale(139.459)" gradientUnits="userSpaceOnUse"><stop offset="0" stop-color="#e9f8f0"></stop><stop offset="1" stop-color="#cce7e7"></stop></linearGradient><linearGradient id="a"><stop offset="0" stop-color="#b0f596"></stop><stop offset="1" stop-color="#1eac61"></stop></linearGradient><linearGradient xlink:href="#a" id="d" x1="0" x2="1" y1="0" y2="0" gradientTransform="scale(-80.53) rotate(-45.721 -1.419 1.232)" gradientUnits="userSpaceOnUse"></linearGradient><linearGradient id="e" x1="0" x2="1" y1="0" y2="0" gradientTransform="rotate(178.242 60.369 59.696) scale(72.256)" gradientUnits="userSpaceOnUse"><stop offset="0" stop-color="#448fae"></stop><stop offset="1" stop-color="#22647f"></stop></linearGradient><linearGradient id="f" x1="77.21" x2="325.175" y1="197.824" y2="197.824" gradientUnits="userSpaceOnUse"><stop offset="0" stop-color="#477294"></stop><stop offset="1" stop-color="#1c3d57"></stop></linearGradient><linearGradient xlink:href="#a" id="g" x1="0" x2="1" y1="0" y2="0" gradientTransform="rotate(120.225 51.788 151.124) scale(28.937)" gradientUnits="userSpaceOnUse"></linearGradient><path fill="url(#b)" d="M155.139 64.835c14.432-5.003 29.927-7.722 46.053-7.722 77.661 0 140.711 63.051 140.711 140.711 0 77.661-63.05 140.711-140.711 140.711S60.481 275.485 60.481 197.824c0-13.012 1.77-25.614 5.082-37.578z" data-original="url(#b)" class=""></path><path fill="url(#c)" d="M85.266 17.02c-39.525 0-71.613 32.089-71.613 71.613 0 39.525 32.088 71.613 71.613 71.613 10.995 0 21.415-2.483 30.729-6.919 6.307-3.004 25.849 8.274 50.131.725 4.666-1.451-22.519-23.217-18.741-29.785 6.039-10.496 9.494-22.665 9.494-35.634 0-39.524-32.089-71.613-71.613-71.613z" data-original="url(#c)" class=""></path><path fill="url(#d)" d="M59.277 106.89s-10.048-5.421-10.15-20.284c-.181-26.299 26.999-33.677 35.369-46.172a1.097 1.097 0 0 1 1.895.001c8.373 12.494 35.553 19.872 35.373 46.171-.102 14.863-10.151 20.284-10.151 20.284z" data-original="url(#d)" class=""></path><path fill="url(#e)" d="M57.121 105.193v49.302c8.644 3.702 18.157 5.751 28.145 5.751 10.128 0 19.767-2.107 28.503-5.906v-49.147c-6.428-1.585-16.346-3.378-28.324-3.378s-21.896 1.793-28.324 3.378z" data-original="url(#e)"></path><path fill="url(#f)" d="M197.025 298.009v19.631c0 2.3 1.867 4.167 4.167 4.167s4.167-1.867 4.167-4.167v-19.631c0-2.3-1.867-4.167-4.167-4.167s-4.167 1.867-4.167 4.167zm-55.089-5.883-4.26 7.378a4.168 4.168 0 0 0 1.525 5.692 4.168 4.168 0 0 0 5.692-1.525l4.26-7.379a4.169 4.169 0 0 0-1.525-5.691 4.168 4.168 0 0 0-5.692 1.525zm122.772 7.378-4.26-7.378a4.168 4.168 0 0 0-5.692-1.525 4.168 4.168 0 0 0-1.525 5.691l4.26 7.379a4.168 4.168 0 0 0 5.692 1.525 4.168 4.168 0 0 0 1.525-5.692zm-161.984-49.64-7.379 4.26a4.168 4.168 0 0 0-1.525 5.691 4.17 4.17 0 0 0 5.692 1.526l7.379-4.26a4.17 4.17 0 0 0 1.525-5.692 4.168 4.168 0 0 0-5.692-1.525zm204.315 4.26-7.379-4.26a4.168 4.168 0 0 0-5.692 1.525 4.17 4.17 0 0 0 1.525 5.692l7.379 4.26a4.17 4.17 0 0 0 5.692-1.526 4.168 4.168 0 0 0-1.525-5.691zm-92.185-51.366 31.063.219a4.167 4.167 0 0 0 .059-8.333l-31.063-.219a4.169 4.169 0 0 0-4.196 4.137 4.168 4.168 0 0 0 4.137 4.196zm-133.478-.767h19.632a4.169 4.169 0 0 0 4.166-4.167 4.168 4.168 0 0 0-4.166-4.166H81.376a4.168 4.168 0 0 0-4.166 4.166c0 2.3 1.867 4.167 4.166 4.167zm220 0h19.632a4.169 4.169 0 0 0 4.166-4.167 4.168 4.168 0 0 0-4.166-4.166h-19.632a4.168 4.168 0 0 0-4.166 4.166c0 2.3 1.867 4.167 4.166 4.167zm-96.017-16.764v-65.241c0-2.299-1.867-4.166-4.167-4.166s-4.167 1.867-4.167 4.166v65.241c0 2.299 1.867 4.166 4.167 4.166s4.167-1.867 4.167-4.166zm97.513-50.919-7.379 4.26a4.17 4.17 0 0 0-1.525 5.692 4.17 4.17 0 0 0 5.692 1.525l7.379-4.26a4.17 4.17 0 0 0 1.525-5.692 4.17 4.17 0 0 0-5.692-1.525zm-45.381-42.33-4.26 7.378a4.17 4.17 0 0 0 1.525 5.692 4.168 4.168 0 0 0 5.692-1.525l4.26-7.379a4.167 4.167 0 0 0-7.217-4.166zm-60.466-13.969V97.64c0 2.3 1.867 4.167 4.167 4.167s4.167-1.867 4.167-4.167V78.009c0-2.3-1.867-4.167-4.167-4.167s-4.167 1.867-4.167 4.167z" data-original="url(#f)"></path><circle cx="201.192" cy="197.824" r="14.731" fill="url(#g)" data-original="url(#g)"></circle><path fill="url(#e)" d="M50.633 111.46s14.236-5.479 34.812-5.479 34.813 5.479 34.813 5.479c2.144.831 4.559-.234 5.391-2.378s-.234-4.56-2.378-5.392c0 0-15.461-6.042-37.826-6.042s-37.826 6.042-37.826 6.042c-2.144.832-3.21 3.248-2.378 5.392s3.248 3.209 5.392 2.378z" data-original="url(#e)"></path></g></svg>