<svg width="52" height="52" viewBox="0 0 52 52" fill="none" xmlns="http://www.w3.org/2000/svg">
<path d="M49.2295 35.1833C49.3908 34.7886 49.2454 34.3347 48.8859 34.1065C48.5254 33.8783 48.0531 33.9408 47.765 34.2546C44.2208 38.1142 39.1337 40.5348 33.4853 40.5348C22.7858 40.5348 14.0991 31.848 14.0991 21.1486C14.0991 11.6811 20.901 3.78912 29.8803 2.09724C30.2998 2.01881 30.602 1.65047 30.5985 1.22397C30.5941 0.797478 30.2857 0.434427 29.8653 0.363051C28.4642 0.124248 27.0244 0 25.5545 0C11.4502 0 0 11.4502 0 25.5545C0 39.6589 11.4502 51.1091 25.5545 51.1091C36.254 51.1091 45.4254 44.5195 49.2295 35.1833ZM25.0126 1.76855C12.1314 2.0567 1.76238 12.6046 1.76238 25.5545C1.76238 38.6861 12.423 49.3467 25.5545 49.3467C33.8827 49.3467 41.2168 45.0588 45.4677 38.5733C42.0619 40.9216 37.9326 42.2972 33.4853 42.2972C21.813 42.2972 12.3367 32.8209 12.3367 21.1486C12.3367 12.4891 17.5533 5.03777 25.0126 1.76855Z" fill="#FF9822"/>
<path d="M5.41845 28.0906C5.31271 27.2517 5.25631 26.3952 5.25631 25.5281C5.25631 24.6786 5.30918 23.8432 5.4114 23.022C5.4678 22.5391 5.12589 22.102 4.643 22.0421C4.16011 21.9822 3.71951 22.3241 3.65959 22.807C3.55032 23.6987 3.49393 24.6081 3.49393 25.5281C3.49393 26.4727 3.55385 27.3997 3.67017 28.3127C3.73009 28.7955 4.17068 29.1374 4.65357 29.0775C5.13647 29.0141 5.47837 28.5735 5.41845 28.0906Z" fill="#FF9822"/>
<path d="M6.16833 19.3862C6.16833 19.6199 6.07549 19.8441 5.91024 20.0093C5.74498 20.1746 5.52085 20.2674 5.28714 20.2674C5.05344 20.2674 4.8293 20.1746 4.66405 20.0093C4.49879 19.8441 4.40595 19.6199 4.40595 19.3862C4.40595 19.1525 4.49879 18.9284 4.66405 18.7631C4.8293 18.5979 5.05344 18.505 5.28714 18.505C5.52085 18.505 5.74498 18.5979 5.91024 18.7631C6.07549 18.9284 6.16833 19.1525 6.16833 19.3862Z" fill="#FF9822"/>
<path d="M28.1981 37.8912C27.7117 37.8912 27.3169 37.4965 27.3169 37.01C27.3169 35.9658 27.3169 34.3665 27.3169 34.3665C27.3169 33.198 27.7813 32.0771 28.607 31.2506C29.4336 30.4249 30.5544 29.9605 31.7229 29.9605C32.8913 29.9605 34.0122 30.4249 34.8388 31.2506C35.6645 32.0771 36.1288 33.198 36.1288 34.3665C36.1288 34.3665 36.1288 36.6056 36.1288 37.8912C36.1288 38.1247 36.0363 38.3495 35.8707 38.5142C35.7059 38.6799 35.4812 38.7724 35.2477 38.7724C35.0141 38.7724 34.7894 38.6799 34.6247 38.5142C34.459 38.3495 34.3665 38.1247 34.3665 37.8912V34.3665C34.3665 33.665 34.088 32.9927 33.5919 32.4975C33.0967 32.0013 32.4243 31.7229 31.7229 31.7229C31.0215 31.7229 30.3491 32.0013 29.8539 32.4975C29.3578 32.9927 29.0793 33.665 29.0793 34.3665C29.0793 34.3665 29.0793 35.9658 29.0793 37.01C29.0793 37.4965 28.6845 37.8912 28.1981 37.8912Z" fill="#FF9822"/>
<path d="M20.2674 14.0991C20.5011 14.0991 20.7252 14.1919 20.8905 14.3572C21.0558 14.5224 21.1486 14.7466 21.1486 14.9803C21.1486 15.214 21.0558 15.4381 20.8905 15.6034C20.7252 15.7686 20.5011 15.8615 20.2674 15.8615C20.0337 15.8615 19.8096 15.7686 19.6443 15.6034C19.479 15.4381 19.3862 15.214 19.3862 14.9803C19.3862 14.7466 19.479 14.5224 19.6443 14.3572C19.8096 14.1919 20.0337 14.0991 20.2674 14.0991Z" fill="#FF9822"/>
<path d="M21.1477 22.0302V18.5054C21.1477 18.0191 20.7529 17.6242 20.2665 17.6242C19.7801 17.6242 19.3853 18.0191 19.3853 18.5054V22.0302C19.3853 22.5166 19.7801 22.9113 20.2665 22.9113C20.7529 22.9113 21.1477 22.5166 21.1477 22.0302Z" fill="#FF9822"/>
<path d="M42.2972 24.6734V14.8287C41.9288 14.6992 41.5905 14.4877 41.3094 14.2057C40.8133 13.7105 40.5348 13.0381 40.5348 12.3367C40.5348 11.4555 40.5348 10.5743 40.5348 10.5743C40.5348 10.0879 40.9296 9.69312 41.416 9.69312H41.8865C41.5869 9.17498 41.416 8.57313 41.416 7.93074C41.416 7.00725 41.7649 6.26 42.3562 5.55857C43.0462 4.73907 44.1204 3.98036 45.1989 2.90178C45.5426 2.55724 46.1013 2.55724 46.445 2.90178C47.5235 3.98036 48.5977 4.73907 49.2877 5.55857C49.879 6.26 50.2279 7.00725 50.2279 7.93074C50.2279 8.57313 50.0561 9.17498 49.7565 9.69312H50.2279C50.7143 9.69312 51.1091 10.0879 51.1091 10.5743V12.3367C51.1091 13.0381 50.8306 13.7105 50.3345 14.2057C50.0534 14.4877 49.7151 14.6992 49.3467 14.8287V30.8417C49.3467 31.0752 49.2542 31.2999 49.0885 31.4647C48.9237 31.6304 48.699 31.7229 48.4655 31.7229C48.232 31.7229 48.0073 31.6304 47.8425 31.4647C47.6769 31.2999 47.5843 31.0752 47.5843 30.8417V14.9803H44.0596V34.3665C44.0596 34.8529 43.6648 35.2477 43.1784 35.2477C42.692 35.2477 42.2972 34.8529 42.2972 34.3665V26.4358H21.1486C21.1486 26.4358 21.1486 29.3375 21.1486 30.8417C21.1486 31.0752 21.0561 31.2999 20.8904 31.4647C20.7256 31.6304 20.5009 31.7229 20.2674 31.7229C20.0339 31.7229 19.8092 31.6304 19.6444 31.4647C19.4787 31.2999 19.3862 31.0752 19.3862 30.8417C19.3862 29.3375 19.3862 26.4358 19.3862 26.4358C19.3862 25.9687 19.5721 25.5202 19.9026 25.1898C20.233 24.8593 20.6816 24.6734 21.1486 24.6734H24.6734V22.5664C23.6159 22.0606 22.911 21.0534 22.911 19.9299V18.3288C22.911 16.532 23.8212 15.3292 25.195 14.3537C26.8728 13.1624 29.3375 12.357 31.1457 10.7893C31.477 10.5029 31.9687 10.5029 32.3001 10.7893C34.1083 12.357 36.573 13.1624 38.2508 14.3537C39.6245 15.3292 40.5348 16.532 40.5348 18.3288C40.5348 18.8998 40.5348 19.4435 40.5348 19.9299C40.5348 21.0534 39.8298 22.0606 38.7724 22.5664V24.6734H42.2972ZM26.4357 24.6734H37.01V22.911H26.4357V24.6734ZM31.7229 12.5843C30.2548 13.6788 28.5057 14.4207 27.0543 15.2587C25.7475 16.0139 24.6734 16.8184 24.6734 18.3288V19.9299C24.6734 20.6402 25.3951 21.1486 26.2154 21.1486C29.2018 21.1486 34.244 21.1486 37.2303 21.1486C38.0507 21.1486 38.7724 20.6402 38.7724 19.9299C38.7724 19.4435 38.7724 18.8998 38.7724 18.3288C38.7724 16.8184 37.6982 16.0139 36.3914 15.2587C34.9401 14.4207 33.191 13.6788 31.7229 12.5843ZM49.3467 11.4555H42.2972V12.3367C42.2972 12.5702 42.3897 12.7949 42.5554 12.9597C42.7202 13.1254 42.9449 13.2179 43.1784 13.2179C44.7143 13.2179 46.9296 13.2179 48.4655 13.2179C48.699 13.2179 48.9237 13.1254 49.0885 12.9597C49.2542 12.7949 49.3467 12.5702 49.3467 12.3367V11.4555ZM45.8219 4.73995C45.1593 5.3418 44.5266 5.84672 44.0217 6.35076C43.5414 6.83101 43.1784 7.29011 43.1784 7.93074C43.1784 8.90622 43.967 9.69312 44.9408 9.69312C45.5171 9.69312 46.1268 9.69312 46.7031 9.69312C47.6769 9.69312 48.4655 8.90446 48.4655 7.93074C48.4655 7.29011 48.1025 6.83101 47.6222 6.35076C47.1173 5.84672 46.4846 5.3418 45.8219 4.73995Z" fill="#FF9822"/>
</svg>
